<svg xmlns="http://www.w3.org/2000/svg" viewBox="0 0 746.45 51.07"><g id="Layer_2" data-name="Layer 2"><g id="Layer_1-2" data-name="Layer 1"><path d="M746.37,47.49c-2-11.6-9.67-17.66-20-22.09,10.49-4.32,18.07-10.34,20.1-22-16.13,0-31.75,0-47.38.08-1,0-2.12,1.06-3,1.83-.58.53-.78,1.46-1.24,2.15-5.47,8.32-11.52,13.43-23.15,13.41q-313.92-.68-627.86-.33h-6.3L44.15.94,42.69,0A110.05,110.05,0,0,1,0,25.4,116,116,0,0,1,42.48,51.07l1.5-.75c-2.18-6.57-4.36-13.14-6.62-20h6.17q314.43,0,628.86-.29c10.89,0,17.31,4.29,21.83,12.67,2.23,4.14,4.78,4.9,8.9,4.85C717.41,47.37,731.71,47.49,746.37,47.49Z"/></g></g></svg>