<svg xmlns="http://www.w3.org/2000/svg" viewBox="0 0 746.59 53.89"><g id="Layer_2" data-name="Layer 2"><g id="Layer_1-2" data-name="Layer 1"><path d="M26.31,53.32,39.64,30.47c-4-1.52-6.2-.36-8,3.14-2.77,5.29-6,10.34-9,15.5s-2.93,5-9.46,4.33c4.51-7.73,8.9-15.28,13.4-23-4.19-1.57-6.36-.06-8.17,3.38C15.55,39.11,12,44,9.35,49.36c-2,3.94-4.54,5.37-9.35,4L13.53,30.1l-6-.44V24.3l6-.58L.15.8C6.25-.53,6.25-.54,9,4.1,12.21,9.55,15.4,15,18.61,20.44c2.22,3.75,2.23,3.75,7.87,3.11L13.22.58C17.7-.77,20.35.22,22.36,4.27c2.73,5.49,6.37,10.53,9.21,16,1.78,3.41,4,4.63,8,3.19L26.41.64c4.5-1.5,7-.38,9,3.46a154.83,154.83,0,0,0,9.13,15.46c.9,1.36,3,2.11,4.69,2.7,1.19.42,2.64.09,4,.09H698.91c-3.5-6.13-6.57-11.49-10.38-18.17l58.06,23.2L689.93,50.09l-.73-.8,10-17c-2.35-.12-3.92-.26-5.49-.26Q372.31,32,51,31.93c-3.81,0-6.16.92-7.88,4.42-2.21,4.46-5.22,8.53-7.4,13C33.77,53.26,31.2,54.83,26.31,53.32Z"/></g></g></svg>