<svg xmlns="http://www.w3.org/2000/svg" viewBox="0 0 746.45 51.07"><g id="Layer_2" data-name="Layer 2"><g id="Layer_1-2" data-name="Layer 1"><path d="M.08,47.49c2-11.6,9.67-17.66,20-22.09C9.61,21.08,2,15.06,0,3.37c16.13,0,31.76,0,47.38.08,1,0,2.12,1.06,3,1.83.58.53.77,1.46,1.23,2.15,5.48,8.32,11.52,13.43,23.15,13.41q313.94-.68,627.86-.33h6.31L702.3.94,703.76,0a110.2,110.2,0,0,0,42.69,25.4A115.91,115.91,0,0,0,704,51.07l-1.5-.75c2.17-6.57,4.35-13.14,6.61-20h-6.17q-314.43,0-628.86-.29c-10.88,0-17.31,4.29-21.83,12.67-2.23,4.14-4.77,4.9-8.89,4.85C29,47.37,14.75,47.49.08,47.49Z"/></g></g></svg>