<svg xmlns="http://www.w3.org/2000/svg" viewBox="0 0 746.59 53.89"><g id="Layer_2" data-name="Layer 2"><g id="Layer_1-2" data-name="Layer 1"><path d="M720.28,53.32c-4.53-7.76-8.86-15.19-13.34-22.85,4-1.52,6.2-.36,8,3.14,2.77,5.29,6,10.34,9,15.5s2.94,5,9.46,4.33l-13.39-23c4.19-1.57,6.35-.06,8.16,3.38,2.79,5.29,6.32,10.2,9,15.54,2,3.94,4.54,5.37,9.36,4-4.47-7.68-8.88-15.27-13.53-23.28l6-.44V24.3l-6-.58L746.44.8c-6.1-1.33-6.11-1.34-8.85,3.3-3.21,5.45-6.4,10.9-9.62,16.34-2.21,3.75-2.23,3.75-7.87,3.11,4.48-7.75,8.81-15.27,13.26-23-4.48-1.35-7.12-.36-9.13,3.69-2.73,5.49-6.37,10.53-9.21,16-1.78,3.41-4,4.63-8,3.19L720.18.64c-4.51-1.5-7-.38-9,3.46a152.85,152.85,0,0,1-9.12,15.46c-.91,1.36-3,2.11-4.69,2.7-1.19.42-2.64.09-4,.09H47.68L58.06,4.18,0,27.38,56.65,50.09l.74-.8-10-17c2.35-.12,3.92-.26,5.49-.26q321.34,0,642.7-.1c3.81,0,6.15.92,7.88,4.42,2.21,4.46,5.21,8.53,7.4,13C712.81,53.26,715.39,54.83,720.28,53.32Z"/></g></g></svg>